# xmcd CD database file
#
# Track frame offsets:
#	150
#	24478
#	42311
#	68128
#	88594
#	113551
#	139236
#	156607
#	184158
#	211184
#	233585
#	256544
#
# Disc length: 3815 seconds
#
# Revision: 0
# Processed by: cddbd v1.5.2PL0 Copyright (c) Steve Scherf et al.
# Submitted via: CDex 1.51
#
DISCID=9b0ee50c
DTITLE=SPA - Music n' Spa
DYEAR=1900
DGENRE=New Age
TTITLE0=For sentimental reason
TTITLE1=A time for love
TTITLE2=Secret love
TTITLE3=Someone to watch over me
TTITLE4=How high the moon
TTITLE5=You'll never know
TTITLE6=The more I see you
TTITLE7=Body and soul
TTITLE8=My funny valentine
TTITLE9=I get a kick out of you
TTITLE10=On the street where you live
TTITLE11=But not for me
EXTD=
EXTT0=
EXTT1=
EXTT2=
EXTT3=
EXTT4=
EXTT5=
EXTT6=
EXTT7=
EXTT8=
EXTT9=
EXTT10=
EXTT11=
PLAYORDER=
